<?xml version="1.0" standalone="no"?>
<!DOCTYPE svg PUBLIC "-//W3C//DTD SVG 20010904//EN"
 "http://www.w3.org/TR/2001/REC-SVG-20010904/DTD/svg10.dtd">
<svg version="1.0" xmlns="http://www.w3.org/2000/svg"
 width="176.000000pt" height="203.000000pt" viewBox="0 0 176.000000 203.000000"
 preserveAspectRatio="xMidYMid meet">

<g transform="translate(0.000000,203.000000) scale(0.100000,-0.100000)"
fill="#000000" stroke="none">
<path d="M725 1937 c-22 -8 -52 -20 -67 -28 -46 -24 -179 -152 -199 -191 -31
-60 -45 -175 -31 -262 20 -128 46 -182 129 -265 40 -40 73 -81 73 -91 0 -33
-12 -50 -35 -50 -14 0 -32 -11 -44 -28 -15 -21 -34 -32 -73 -40 -128 -29 -205
-90 -234 -187 -8 -27 -23 -104 -33 -170 -30 -186 -31 -203 -15 -216 10 -8 14
-35 14 -88 0 -89 23 -149 66 -178 24 -16 52 -18 204 -19 106 -1 220 -8 290
-18 129 -19 193 -20 498 -10 188 6 216 9 235 26 l22 18 -25 -5 c-21 -4 -464
-25 -542 -25 -43 0 -59 33 -47 95 5 28 27 153 49 280 30 175 43 233 56 242 20
14 201 16 454 3 128 -6 110 -7 -147 -8 -203 -1 -294 -5 -299 -13 -7 -12 -80
-428 -91 -518 l-6 -54 199 7 c436 16 407 13 426 38 16 23 99 436 101 507 1 48
-22 61 -107 61 -39 0 -149 3 -244 7 l-173 6 -13 31 c-18 41 -81 103 -121 117
-17 7 -39 25 -48 40 l-16 29 35 0 c100 0 180 49 220 134 19 40 24 68 24 132 0
69 3 85 24 113 14 19 28 47 32 64 3 17 11 39 17 48 9 14 3 26 -27 63 -47 58
-47 98 -1 107 23 4 14 7 -40 13 -94 11 -182 39 -290 94 -100 50 -102 68 -3 27
35 -14 70 -29 78 -32 24 -10 -32 33 -67 51 -18 9 -67 21 -110 28 -69 10 -75
12 -48 20 28 8 96 4 139 -9 13 -4 16 -2 11 7 -6 10 0 12 26 7 52 -10 13 8 -50
23 -49 12 -138 10 -201 -5 -15 -3 -9 2 15 15 49 24 159 27 230 6 26 -8 85 -38
132 -67 47 -28 106 -60 131 -70 46 -18 46 -18 15 -19 -18 0 -56 9 -85 20 -29
11 -66 20 -83 20 l-30 -1 23 -19 c32 -27 147 -50 249 -50 81 0 128 10 107 22
-5 3 -40 16 -79 28 -86 28 -129 49 -215 106 -36 24 -92 53 -125 65 -75 26
-204 34 -260 16z m125 -253 c77 -31 191 -54 271 -54 53 0 59 -2 59 -21 0 -17
-4 -20 -22 -15 -81 23 -116 19 -100 -11 8 -13 4 -25 -15 -50 -14 -18 -30 -33
-37 -33 -18 0 -76 77 -70 94 8 21 -26 36 -80 36 -60 0 -93 -14 -140 -58 -28
-26 -37 -31 -32 -17 11 30 87 155 95 155 4 0 36 -12 71 -26z m65 -134 c89 -55
57 -186 -50 -206 -109 -20 -197 85 -153 182 26 56 131 68 203 24z m258 -92
c-2 -57 -6 -109 -8 -115 -8 -25 -65 -14 -97 17 -28 28 -30 35 -26 85 6 75 42
113 110 114 l26 1 -5 -102z m-568 46 c8 -12 24 -24 36 -26 15 -2 27 -17 41
-55 23 -62 61 -94 123 -101 98 -11 169 32 181 109 10 63 24 56 24 -13 0 -42 7
-78 21 -108 19 -42 19 -45 3 -57 -10 -7 -31 -13 -48 -13 -23 0 -27 -3 -18 -12
15 -15 87 6 96 28 3 8 -1 28 -9 44 -19 37 -19 46 1 29 9 -8 40 -16 68 -19 l51
-5 -1 -70 c-2 -117 -54 -190 -155 -215 -84 -21 -178 8 -278 88 -37 29 -37 28
20 -61 43 -66 64 -121 55 -144 -13 -32 -139 14 -171 63 -12 19 -13 31 0 91 18
83 18 117 3 199 -11 62 -12 64 -42 64 -98 1 -163 192 -76 222 21 7 57 -11 75
-38z m639 -9 c8 -31 -10 -105 -25 -105 -6 0 -8 7 -5 16 3 9 6 40 6 70 0 56 12
65 24 19z m-634 -470 c0 -3 -5 -13 -11 -23 -27 -43 65 -151 145 -173 54 -15
97 -4 131 31 21 22 29 40 29 65 0 43 13 45 27 6 6 -18 22 -34 42 -42 41 -17
94 -65 113 -100 l15 -29 -40 0 c-72 0 -85 -22 -116 -200 -35 -201 -30 -190
-68 -191 l-32 -1 29 -10 c26 -10 28 -14 23 -50 -3 -22 -7 -41 -9 -44 -3 -2
-20 1 -39 6 -59 17 -83 12 -229 -55 -78 -36 -147 -65 -152 -65 -22 0 -58 50
-58 82 l0 33 141 39 c77 21 138 40 136 42 -3 4 -154 -25 -221 -42 -25 -6 -26
-5 -20 27 4 19 15 41 24 51 12 11 19 41 24 100 4 45 9 110 12 143 6 85 -14 36
-26 -63 -6 -40 -12 -78 -15 -83 -16 -25 -231 -1 -242 27 -9 23 35 261 57 312
36 81 72 106 201 142 53 14 79 27 92 45 17 22 37 33 37 20z m-235 -569 c88 -2
90 -3 90 -27 l0 -24 -107 2 c-113 2 -148 12 -148 42 0 26 8 30 43 20 18 -6 73
-11 122 -13z m392 -282 c84 -6 138 -23 122 -38 -6 -6 -287 21 -300 30 -5 3 -9
10 -9 16 0 7 17 9 48 5 26 -3 89 -9 139 -13z"/>
<path d="M783 1493 c-18 -7 -16 -52 3 -60 23 -9 51 23 38 44 -12 19 -23 24
-41 16z"/>
<path d="M1074 1448 c-4 -15 -1 -26 12 -35 17 -12 21 -11 36 7 21 26 13 50
-17 50 -15 0 -26 -8 -31 -22z"/>
<path d="M547 1483 c-15 -14 -6 -64 17 -90 27 -31 44 -27 26 6 -8 15 -8 27 0
42 7 11 9 27 6 35 -6 14 -37 19 -49 7z"/>
<path d="M840 1198 c0 -19 38 -54 73 -67 58 -22 146 -4 160 33 5 11 -5 13 -53
9 -53 -5 -88 2 -162 32 -12 5 -18 3 -18 -7z"/>
<path d="M702 668 c-19 -19 -14 -35 9 -34 25 1 69 -70 69 -110 0 -25 -24 -54
-46 -54 -16 0 -19 31 -4 46 8 8 4 25 -12 57 -22 45 -38 59 -38 35 0 -6 -7 -19
-15 -28 -14 -15 -13 -24 7 -88 l23 -72 78 0 c65 0 78 3 83 18 3 9 14 39 24 65
19 48 19 49 -1 80 -10 18 -19 41 -19 53 0 33 -21 44 -85 44 -34 0 -66 -5 -73
-12z m146 -66 c3 -17 -2 -22 -17 -22 -14 0 -21 6 -21 18 0 38 33 41 38 4z m2
-101 c0 -22 -23 -34 -38 -19 -15 15 -3 38 19 38 12 0 19 -7 19 -19z"/>
</g>
</svg>
